<svg xmlns="http://www.w3.org/2000/svg" viewBox="0 0 279.55 65.32"><defs><style>.cls-1{fill:#fff;}</style></defs><title>1_Header_LogoBL</title><g id="Layer_2" data-name="Layer 2"><g id="Layer_1-2" data-name="Layer 1"><path class="cls-1" d="M23.39,40.89a17.46,17.46,0,0,1-2.13.38,21.84,21.84,0,0,1-2.82.19,7.79,7.79,0,0,1-4.33-1q-1.44-1-1.44-4.11V27.91q-1.57-2.32-3.39-5.14T5.71,17Q4,14,2.45,11.2A53.16,53.16,0,0,1,0,6,8.53,8.53,0,0,1,2.23,3.89a6.14,6.14,0,0,1,3.48-.94,7.17,7.17,0,0,1,4,1,9.44,9.44,0,0,1,2.92,3.76l5.21,10.47h.38q.88-1.94,1.54-3.54T21,11.45q.63-1.6,1.32-3.32t1.57-4a11.11,11.11,0,0,1,2.51-.88A11.9,11.9,0,0,1,29,2.95a6,6,0,0,1,3.73,1.16,4.09,4.09,0,0,1,1.54,3.48A6.64,6.64,0,0,1,34,9.41a20.41,20.41,0,0,1-1.44,3.23q-1.13,2.16-3.29,5.86t-5.86,9.66Z"/><path class="cls-1" d="M36.31,9A5.76,5.76,0,0,1,37.88,4.7a5.76,5.76,0,0,1,4.27-1.57h20.7A7.56,7.56,0,0,1,63.62,5,8.13,8.13,0,0,1,64,7.34a4.59,4.59,0,0,1-1,3.39,3.75,3.75,0,0,1-2.73,1H47v5.83H61.08a7.66,7.66,0,0,1,.78,1.79,7.82,7.82,0,0,1,.34,2.35,4.69,4.69,0,0,1-1,3.39,3.64,3.64,0,0,1-2.7,1H47v6.59H63.09a7.56,7.56,0,0,1,.78,1.82,8.13,8.13,0,0,1,.34,2.38,4.71,4.71,0,0,1-1,3.42,3.69,3.69,0,0,1-2.73,1H42.14a5.41,5.41,0,0,1-5.83-5.83Z"/><path class="cls-1" d="M65.79,11.92A8.13,8.13,0,0,1,65,10a8.28,8.28,0,0,1-.38-2.51A4.74,4.74,0,0,1,65.69,4a3.92,3.92,0,0,1,2.85-1.07H95.89a8.17,8.17,0,0,1,.82,1.88,8.29,8.29,0,0,1,.38,2.51A4.75,4.75,0,0,1,96,10.85a3.92,3.92,0,0,1-2.85,1.07h-7v29a17.46,17.46,0,0,1-2.16.38,23,23,0,0,1-2.92.19,13.08,13.08,0,0,1-2.54-.22,4.5,4.5,0,0,1-1.85-.78,3.39,3.39,0,0,1-1.13-1.57,7.63,7.63,0,0,1-.38-2.63V11.92Z"/><path class="cls-1" d="M117,10.79q-4.83,0-7.4,2.95t-2.57,8.34q0,5.46,2.85,8.4a10.19,10.19,0,0,0,7.68,2.95,12.13,12.13,0,0,0,4.36-.69,29.8,29.8,0,0,0,3.42-1.57,6.25,6.25,0,0,1,1.66,2.1,6.45,6.45,0,0,1,.6,2.85q0,2.57-2.85,4.36t-8.69,1.79a25.64,25.64,0,0,1-7.9-1.19,17.61,17.61,0,0,1-6.46-3.67,17.3,17.3,0,0,1-4.36-6.27,23.27,23.27,0,0,1-1.6-9.06,22.5,22.5,0,0,1,1.54-8.62,18.31,18.31,0,0,1,4.2-6.3,17.69,17.69,0,0,1,6.24-3.89,22,22,0,0,1,7.65-1.32q5.77,0,8.94,1.88t3.17,4.83a4.88,4.88,0,0,1-.82,2.82,6.71,6.71,0,0,1-1.88,1.88,20.4,20.4,0,0,0-3.48-1.82A11.34,11.34,0,0,0,117,10.79Z"/><path class="cls-1" d="M139.35,4.27a13.3,13.3,0,0,1,3.23-1.19,17.2,17.2,0,0,1,4.36-.56,15.7,15.7,0,0,1,5.55.91,4.84,4.84,0,0,1,3.1,2.85q1.13,3.26,2.45,7.59t2.63,8.94q1.32,4.61,2.57,9.09t2.19,7.93a5.16,5.16,0,0,1-2.26,1.41,10.74,10.74,0,0,1-3.57.53,11,11,0,0,1-2.54-.25,4.53,4.53,0,0,1-1.69-.75,3.7,3.7,0,0,1-1.07-1.32,11.36,11.36,0,0,1-.72-1.88l-1.13-4.33H141.11q-.5,1.88-1,3.89t-1,3.89a16.25,16.25,0,0,1-1.85.53,10.86,10.86,0,0,1-2.35.22,8.21,8.21,0,0,1-4.73-1.1,3.53,3.53,0,0,1-1.54-3,6.37,6.37,0,0,1,.25-1.76q.25-.88.56-2.07.44-1.69,1.22-4.2t1.72-5.42q.94-2.92,2-6l2-5.8q.94-2.73,1.72-4.86T139.35,4.27Zm7.53,8.09q-.88,2.63-2,5.86t-2,6.55h7.78q-.88-3.39-1.79-6.62t-1.66-5.8Z"/><path class="cls-1" d="M178.36,28.85v12a17.48,17.48,0,0,1-2.16.38,23,23,0,0,1-2.92.19,13.09,13.09,0,0,1-2.54-.22,4.24,4.24,0,0,1-1.82-.78,3.48,3.48,0,0,1-1.1-1.57,7.63,7.63,0,0,1-.38-2.63V6.71a2.76,2.76,0,0,1,.72-2,5.15,5.15,0,0,1,2-1.16,23.55,23.55,0,0,1,5-1.1,49.82,49.82,0,0,1,6-.34q8.66,0,13,3.64a12.12,12.12,0,0,1,4.39,9.85,11,11,0,0,1-2,6.65,14.41,14.41,0,0,1-4.77,4.26q2.26,3.07,4.45,5.77a37.33,37.33,0,0,1,3.45,4.89,5.91,5.91,0,0,1-2.29,3.36,6.37,6.37,0,0,1-3.73,1.16,8,8,0,0,1-2.38-.31,5.74,5.74,0,0,1-1.76-.88,7.16,7.16,0,0,1-1.38-1.38A18.18,18.18,0,0,1,187,37.32l-5.27-8.47Zm4-8.34a5.47,5.47,0,0,0,3.76-1.22,4.57,4.57,0,0,0,1.38-3.61,4.33,4.33,0,0,0-1.54-3.61,7.8,7.8,0,0,0-4.86-1.22,14.47,14.47,0,0,0-1.51.06q-.56.06-1.25.19v9.41Z"/><path class="cls-1" d="M236.44,34.93a4.89,4.89,0,0,1-.69,2.88,7.15,7.15,0,0,1-2.19,1.82,13.89,13.89,0,0,1-2.2,1,24,24,0,0,1-2.88.82,31.1,31.1,0,0,1-3.29.53,31.54,31.54,0,0,1-3.42.19,28.49,28.49,0,0,1-8.47-1.22,19.25,19.25,0,0,1-6.87-3.7A17.55,17.55,0,0,1,201.82,31a20.46,20.46,0,0,1-1.69-8.59,20.39,20.39,0,0,1,1.85-9,18.85,18.85,0,0,1,4.89-6.37,20.48,20.48,0,0,1,7-3.79,26.29,26.29,0,0,1,8.06-1.25q6,0,9.44,1.91t3.48,5a4.87,4.87,0,0,1-.82,2.82,6.71,6.71,0,0,1-1.88,1.88,25.78,25.78,0,0,0-3.92-1.85,14.61,14.61,0,0,0-5.3-.91,11.52,11.52,0,0,0-8.37,3q-3.1,3-3.1,8.34a13.31,13.31,0,0,0,.85,5,9.47,9.47,0,0,0,2.29,3.45,9.31,9.31,0,0,0,3.32,2,12.06,12.06,0,0,0,4,.66,10.71,10.71,0,0,0,2.45-.25,6.52,6.52,0,0,0,1.63-.56v-5.9h-6.71a9.9,9.9,0,0,1-.72-1.82,8.09,8.09,0,0,1-.34-2.38,4.39,4.39,0,0,1,1-3.26,3.67,3.67,0,0,1,2.67-1h10.6a3.94,3.94,0,0,1,2.92,1,3.94,3.94,0,0,1,1,2.92Z"/><path class="cls-1" d="M257.78,0A21.77,21.77,0,0,0,237.7,13.37l19.41-6c1.45-.45,1.81-.12,1.9.73s.55,5.2.55,5.2,3.59-1.2,4.23-1.4a2,2,0,0,1,1.88.39c.58.44,5.89,5.66,5.89,5.66,2-.62,2.86.43,3,1.45s.68,5.33.69,6.21-.08,1.43-1.21,1.78l-1.72.53a6,6,0,0,1-.12,2.24c-.7,2.86-3.29,4.68-5.79,4.07a4.56,4.56,0,0,1-3.25-3.47l-11.66,3.61a6,6,0,0,1-.12,2.24,5.33,5.33,0,0,1-4.2,4.14A21.77,21.77,0,1,0,257.78,0Z"/><ellipse class="cls-1" cx="246.87" cy="35.53" rx="2.77" ry="2.42" transform="translate(153.47 266.8) rotate(-76.2)"/><polygon class="cls-1" points="259.83 15.63 260.56 21.39 268.83 18.83 264.06 14.23 259.83 15.63"/><ellipse class="cls-1" cx="267.69" cy="29.09" rx="2.77" ry="2.42" transform="translate(175.58 282.11) rotate(-76.2)"/><path class="cls-1" d="M3.07,56.76a1.41,1.41,0,0,1-1.4-1.42A1.39,1.39,0,0,1,3.1,54a1.41,1.41,0,0,1,1.4,1.42A1.39,1.39,0,0,1,3.07,56.76ZM1.69,65.3l.45-7.8,1.84,0c0,2.72.17,5.16.25,7.81Z"/><path class="cls-1" d="M10.4,52.87h2.76v2.21H10.4v8.84H8.19V55.07H5.43V52.87h5Z"/><path class="cls-1" d="M23,52.87v6.66A4.44,4.44,0,0,1,18.56,64a4.44,4.44,0,0,1-4.45-4.45V52.87h2.23v6.65a2.22,2.22,0,0,0,2.21,2.21,2.15,2.15,0,0,0,1.56-.65,2.11,2.11,0,0,0,.66-1.56V52.87Z"/><path class="cls-1" d="M33,52.87h2.76v2.21H33v8.84H30.82V55.07H28.06V52.87h5Z"/><path class="cls-1" d="M36.74,52.85h3.59A4,4,0,0,1,43.2,54a3.24,3.24,0,0,1,1.07,2.53v.34a3.35,3.35,0,0,1-.7,2.08A2.79,2.79,0,0,1,42,60.06l2.49,3.84h-2.7L39,59.59v4.31H36.75Zm3.79,5.32a1.23,1.23,0,0,0,1-.44A1.51,1.51,0,0,0,42,56.58a1.38,1.38,0,0,0-.44-1.08,2,2,0,0,0-1.36-.45H39v3.11Z"/><path class="cls-1" d="M48.33,62.29l-.72,1.59H45.23l5-11.22,5,11.22H52.87l-.71-1.6,0-.08H48.36Zm2.88-2-1-2.29-1,2.29Z"/><path class="cls-1" d="M62.71,59v-6.1h2.21V64.11L58.3,57.8v6.11H56.09V52.66Z"/><path class="cls-1" d="M69.29,61.71a1.13,1.13,0,0,0,1.12-1.12.86.86,0,0,0-.56-.91c-.79-.29-.6-.23-1.38-.49a4.4,4.4,0,0,1-2.08-1.53,2.51,2.51,0,0,1-.45-1.53,3.35,3.35,0,0,1,6.71,0H70.42a1.11,1.11,0,0,0-2.23,0,1,1,0,0,0,.48.9,3.28,3.28,0,0,0,1.37.58,4.26,4.26,0,0,1,2.14,1.45,2.44,2.44,0,0,1,.47,1.53,3.35,3.35,0,0,1-6.71,0h2.23a1.12,1.12,0,0,0,1.12,1.12Z"/><path class="cls-1" d="M73.67,60.59V52.87h3.86a3.86,3.86,0,1,1,0,7.73H75.88v3.31H73.67Zm3.86-2.2a1.66,1.66,0,0,0,1.66-1.66,1.62,1.62,0,0,0-.49-1.17,1.58,1.58,0,0,0-1.17-.49H75.88v3.31Z"/><path class="cls-1" d="M91.61,54.45a5.55,5.55,0,1,1-3.95-1.64A5.38,5.38,0,0,1,91.61,54.45ZM85.3,56A3.34,3.34,0,1,0,90,60.75,3.34,3.34,0,1,0,85.3,56Z"/><path class="cls-1" d="M94.05,52.85h3.59A4,4,0,0,1,100.51,54a3.24,3.24,0,0,1,1.07,2.53v.34a3.35,3.35,0,0,1-.7,2.08,2.79,2.79,0,0,1-1.58,1.12l2.49,3.84h-2.7l-2.82-4.31v4.31H94.06Zm3.79,5.32a1.23,1.23,0,0,0,1-.44,1.51,1.51,0,0,0,.44-1.15,1.38,1.38,0,0,0-.44-1.08,2,2,0,0,0-1.36-.45H96.26v3.11Z"/><path class="cls-1" d="M107.65,52.87h2.76v2.21h-2.76v8.84h-2.21V55.07h-2.76V52.87h5Z"/><path class="cls-1" d="M118,52.87v2.21h-4.41v2.21h3.31v2.21h-3.31v2.21H118v2.21h-6.62v-11Z"/><path class="cls-1" d="M125.85,52.89a5.61,5.61,0,0,1,4,1.62,5.85,5.85,0,0,1,0,7.78,5.63,5.63,0,0,1-4,1.62h-2.73v-11h2.73Zm0,8.81a3.24,3.24,0,0,0,2.38-.9,3.31,3.31,0,0,0-2.4-5.71h-.51v6.61h.53Z"/><path class="cls-1" d="M138.8,52.87v2.21h-4.41v2.21h3.31v2.21h-3.31v2.21h4.41v2.21h-6.62v-11Z"/><path class="cls-1" d="M149.23,52.84a5.36,5.36,0,0,1,2.16.44,5.92,5.92,0,0,1,1.79,1.19L151.61,56a3.25,3.25,0,0,0-2.36-1,3.2,3.2,0,0,0-2.36,1,3.34,3.34,0,1,0,4.73,4.72l1.58,1.58a5.81,5.81,0,0,1-1.79,1.2,5.58,5.58,0,1,1-2.16-10.73Z"/><path class="cls-1" d="M156.62,62.29l-.72,1.59h-2.38l5-11.22,5,11.22h-2.39l-.71-1.6,0-.08h-3.76Zm2.88-2-1-2.29-1,2.29Z"/><path class="cls-1" d="M164.36,52.85H168A4,4,0,0,1,170.82,54a3.24,3.24,0,0,1,1.07,2.53v.34a3.35,3.35,0,0,1-.7,2.08,2.79,2.79,0,0,1-1.58,1.12l2.49,3.84h-2.7l-2.82-4.31v4.31h-2.21Zm3.79,5.32a1.23,1.23,0,0,0,1-.44,1.51,1.51,0,0,0,.44-1.15,1.38,1.38,0,0,0-.44-1.08,2,2,0,0,0-1.36-.45h-1.24v3.11Z"/><path class="cls-1" d="M178.44,52.83a5.36,5.36,0,0,1,2.16.44,5.92,5.92,0,0,1,1.79,1.19L180.81,56a3.25,3.25,0,0,0-2.36-1,3.2,3.2,0,0,0-2.36,1,3.34,3.34,0,0,0,2.36,5.71,3.2,3.2,0,0,0,1.95-.62,3.36,3.36,0,0,0,1.21-1.6h-3.16V57.29h5.47A5.26,5.26,0,0,1,184,58.4a5.57,5.57,0,1,1-5.59-5.59Z"/><path class="cls-1" d="M186.63,62.29l-.72,1.59h-2.38l5-11.22,5,11.22h-2.39l-.71-1.6,0-.08h-3.76Zm2.88-2-1-2.29-1,2.29Z"/><path class="cls-1" d="M205.11,52.87v2.21H200.7v2.21H204v2.21H200.7v2.21h4.41v2.21h-6.62v-11Z"/><path class="cls-1" d="M212.76,59v-6.1H215V64.11l-6.62-6.31v6.11h-2.21V52.66Z"/><path class="cls-1" d="M229.06,52.87v6.66a4.44,4.44,0,1,1-8.88,0V52.87h2.23v6.65a2.22,2.22,0,0,0,2.21,2.21,2.15,2.15,0,0,0,1.56-.65,2.11,2.11,0,0,0,.66-1.56V52.87Z"/><path class="cls-1" d="M236.77,59v-6.1H239V64.11l-6.62-6.31v6.11h-2.21V52.66Z"/><path class="cls-1" d="M249.48,52.84a5.36,5.36,0,0,1,2.16.44,5.92,5.92,0,0,1,1.79,1.19L251.86,56a3.25,3.25,0,0,0-2.36-1,3.2,3.2,0,0,0-2.36,1,3.34,3.34,0,1,0,4.73,4.72l1.58,1.58a5.81,5.81,0,0,1-1.79,1.2,5.58,5.58,0,1,1-2.16-10.73Z"/><path class="cls-1" d="M256.47,52.87v8.83h4.41v2.21h-6.62v-11Z"/><path class="cls-1" d="M261.7,52.87h2.21v11H261.7Z"/><path class="cls-1" d="M270.3,52.84a5.36,5.36,0,0,1,2.16.44,5.92,5.92,0,0,1,1.79,1.19L272.68,56a3.25,3.25,0,0,0-2.36-1A3.2,3.2,0,0,0,268,56a3.34,3.34,0,1,0,4.73,4.72l1.58,1.58a5.81,5.81,0,0,1-1.79,1.2,5.58,5.58,0,1,1-2.16-10.73Z"/><path class="cls-1" d="M276.49,61.36a1.41,1.41,0,0,1,1.41,1.41,1.39,1.39,0,0,1-1.41,1.38,1.41,1.41,0,0,1-1.41-1.41A1.39,1.39,0,0,1,276.49,61.36Zm1.26-8.55-.35,7.81h-1.84c-.08-2.72-.24-5.16-.36-7.81Z"/></g></g></svg>