<?xml version="1.0" encoding="utf-8"?>
<!-- Generator: Adobe Illustrator 22.0.1, SVG Export Plug-In . SVG Version: 6.00 Build 0)  -->
<svg version="1.1" id="Capa_1" xmlns="http://www.w3.org/2000/svg" xmlns:xlink="http://www.w3.org/1999/xlink" x="0px" y="0px"
	 viewBox="0 0 481.3 500" style="enable-background:new 0 0 481.3 500;" xml:space="preserve">
<style type="text/css">
	.st0{fill:#FFFFFF;}
</style>
<g>
	<path class="st0" d="M230.3,0C129.5,0.1,38.6,60.6-0.3,153.6l222.9-68.9c16.6-5.2,20.8-1.4,21.8,8.4s6.3,59.7,6.3,59.7
		s41.2-13.8,48.6-16.1c7.5-2.3,15.6-0.6,21.6,4.5c6.7,5.1,67.6,65,67.6,65c23-7.1,32.8,4.9,34.4,16.6c1.6,11.7,7.8,61.2,7.9,71.3
		s-0.9,16.4-13.9,20.4l-19.7,6.1c1.2,8.6,0.7,17.3-1.4,25.7c-8,32.8-37.8,53.7-66.5,46.7c-18.9-5.2-33.3-20.6-37.3-39.8l-133.9,41.4
		c1.2,8.6,0.7,17.3-1.4,25.7c-5,24.1-24,42.8-48.2,47.5c120.4,67.6,272.7,24.9,340.3-95.5s24.9-272.7-95.5-340.3
		C315.8,11,273.4-0.1,230.3,0z"/>
	
		<ellipse transform="matrix(0.2385 -0.9711 0.9711 0.2385 -316.335 412.5668)" class="st0" cx="104.9" cy="408" rx="31.8" ry="27.8"/>
	<polygon class="st0" points="253.8,179.5 262.2,245.6 357.2,216.2 302.4,163.4 	"/>
	<ellipse transform="matrix(0.2385 -0.9711 0.9711 0.2385 -62.4234 588.3894)" class="st0" cx="344" cy="334" rx="31.8" ry="27.8"/>
</g>
</svg>
